<svg width="16" height="16" viewBox="0 0 16 16" fill="none" xmlns="http://www.w3.org/2000/svg">
<g id="Frame">
<path id="Vector" d="M3.33333 4.66634C3.33333 4.11405 3.78105 3.66634 4.33333 3.66634C4.88562 3.66634 5.33333 4.11405 5.33333 4.66634C5.33333 5.21863 4.88562 5.66634 4.33333 5.66634C3.78105 5.66634 3.33333 5.21863 3.33333 4.66634ZM4.33333 2.33301C3.04467 2.33301 2 3.37767 2 4.66634C2 5.95501 3.04467 6.99967 4.33333 6.99967C5.622 6.99967 6.66667 5.95501 6.66667 4.66634C6.66667 3.37767 5.622 2.33301 4.33333 2.33301ZM8 5.33301H13.3333V3.99967H8V5.33301ZM10.6667 11.333C10.6667 10.7807 11.1144 10.333 11.6667 10.333C12.2189 10.333 12.6667 10.7807 12.6667 11.333C12.6667 11.8853 12.2189 12.333 11.6667 12.333C11.1144 12.333 10.6667 11.8853 10.6667 11.333ZM11.6667 8.99967C10.378 8.99967 9.33333 10.0443 9.33333 11.333C9.33333 12.6217 10.378 13.6663 11.6667 13.6663C12.9553 13.6663 14 12.6217 14 11.333C14 10.0443 12.9553 8.99967 11.6667 8.99967ZM2.66667 10.6663V11.9997H8V10.6663H2.66667Z" fill="#8E8E8E"/>
</g>
</svg>
