<svg width="16" height="7" viewBox="0 0 16 7" fill="none" xmlns="http://www.w3.org/2000/svg">
<g id="Kwh">
<path d="M0 6.03629V0H1.09349V2.77351H1.16717L3.52215 0H4.85733L2.52298 2.70867L4.87796 6.03629H3.56342L1.76255 3.44847L1.09349 4.23837V6.03629H0Z" fill="#8E8E8E"/>
<path d="M5.98545 6.03629L4.70627 1.50907H5.79387L6.58967 4.69227H6.63093L7.44441 1.50907H8.52022L9.3337 4.67459H9.37791L10.1619 1.50907H11.2525L9.97034 6.03629H8.85917L8.01032 2.97688H7.94842L7.09957 6.03629H5.98545Z" fill="#8E8E8E"/>
<path d="M13.0644 3.38362V6.03629H11.9974V0H13.0408V2.27835H13.0939C13.2 2.0229 13.364 1.8215 13.5861 1.67413C13.8101 1.52479 14.095 1.45012 14.4408 1.45012C14.7552 1.45012 15.0293 1.51595 15.2631 1.6476C15.497 1.77925 15.6777 1.97182 15.8055 2.22529C15.9352 2.47877 16 2.78825 16 3.15373V6.03629H14.933V3.31878C14.933 3.01421 14.8544 2.77744 14.6972 2.60846C14.542 2.43751 14.3239 2.35203 14.0429 2.35203C13.8543 2.35203 13.6853 2.39329 13.536 2.47582C13.3886 2.55638 13.2727 2.6733 13.1882 2.82656C13.1056 2.97983 13.0644 3.16552 13.0644 3.38362Z" fill="#8E8E8E"/>
</g>
</svg>
