<svg width="16" height="18" viewBox="0 0 16 18" fill="none" xmlns="http://www.w3.org/2000/svg">
<path d="M7.99999 15.6569L12.3997 11.5563C14.8297 9.29173 14.8297 5.61999 12.3997 3.35534C9.96985 1.09069 6.03014 1.09069 3.60022 3.35534C1.17029 5.61999 1.17029 9.29173 3.60022 11.5563L7.99999 15.6569ZM7.99999 18L2.34314 12.728C-0.781048 9.81621 -0.781048 5.09546 2.34314 2.18377C5.46733 -0.727923 10.5326 -0.727923 13.6569 2.18377C16.781 5.09546 16.781 9.81621 13.6569 12.728L7.99999 18ZM7.99999 9.11271C8.98185 9.11271 9.77776 8.37093 9.77776 7.45585C9.77776 6.5408 8.98185 5.799 7.99999 5.799C7.01812 5.799 6.22221 6.5408 6.22221 7.45585C6.22221 8.37093 7.01812 9.11271 7.99999 9.11271ZM7.99999 10.7696C6.03631 10.7696 4.44444 9.28593 4.44444 7.45585C4.44444 5.62574 6.03631 4.14214 7.99999 4.14214C9.96363 4.14214 11.5555 5.62574 11.5555 7.45585C11.5555 9.28593 9.96363 10.7696 7.99999 10.7696Z" fill="#8E8E8E"/>
</svg>
