<svg width="16" height="16" viewBox="0 0 16 16" fill="none" xmlns="http://www.w3.org/2000/svg">
<path d="M7.60918 1.34297C7.34981 1.35859 7.05918 1.39609 6.78105 1.44609C4.54668 1.85547 2.63262 3.44141 1.79199 5.57734C1.48262 6.36328 1.33887 7.12891 1.33887 7.99922C1.33887 8.59453 1.39512 9.05859 1.53418 9.61641C2.04355 11.6602 3.5498 13.3883 5.51543 14.1836C6.3123 14.5055 7.11699 14.6602 7.99981 14.6602C8.96699 14.6602 9.82012 14.4805 10.6951 14.093C12.1123 13.4664 13.3139 12.3055 13.9982 10.8977C14.9998 8.84141 14.8654 6.39297 13.6436 4.46328C13.1436 3.67109 12.4545 2.96953 11.6639 2.44141C10.7592 1.83984 9.75293 1.4789 8.67168 1.36797C8.38106 1.33828 7.87949 1.32578 7.60918 1.34297ZM8.67168 1.89766C9.78418 2.02109 10.8482 2.45703 11.742 3.15703C11.8279 3.22422 11.9436 3.32109 11.9998 3.37265L12.1014 3.4664L11.7545 3.81484C11.3404 4.23047 11.3154 4.27266 11.392 4.43203C11.4482 4.54766 11.5686 4.60234 11.6951 4.57266C11.7482 4.55859 11.8139 4.50078 12.1186 4.19922L12.4795 3.8414L12.5732 3.94766C12.8123 4.21797 13.1311 4.67422 13.3201 5.01328C13.6779 5.65859 13.9232 6.38047 14.0232 7.08516C14.0482 7.27109 14.0779 7.56953 14.0779 7.65078V7.70078L13.567 7.70547C13.0873 7.71016 13.0514 7.71172 13.0029 7.74141C12.8576 7.82891 12.8404 8.02734 12.9654 8.16172C13.0592 8.26016 13.0811 8.26484 13.6295 8.26484H14.1248V8.36484C14.1248 8.51016 14.0982 8.75391 14.0529 9.02578C13.8748 10.1086 13.4014 11.1195 12.6764 11.9695C12.6045 12.0539 12.5404 12.1242 12.5342 12.1242C12.5295 12.1242 12.3623 11.9633 12.1639 11.7664C11.7764 11.3805 11.7654 11.3727 11.6279 11.3961C11.4826 11.4195 11.3889 11.5711 11.4264 11.7211C11.4404 11.7789 11.4904 11.8367 11.7998 12.1492L12.1576 12.5102L12.0279 12.6195C11.8076 12.8055 11.6717 12.9086 11.4529 13.0555C11.1623 13.2508 10.9842 13.3523 10.6514 13.5148C9.94824 13.857 9.27324 14.0336 8.42637 14.1008L8.29824 14.1102L8.29356 13.5977C8.28887 13.0117 8.28731 13.007 8.15606 12.9398C8.02481 12.8727 7.88418 12.9086 7.80137 13.0305C7.76543 13.082 7.76543 13.0883 7.76543 13.6055V14.1289L7.57481 14.1195C6.74043 14.0773 5.79824 13.7945 5.00762 13.3461C4.6873 13.1648 4.23418 12.8398 3.98418 12.6117L3.89824 12.532L4.24512 12.1836C4.66074 11.7664 4.68418 11.7258 4.60762 11.5648C4.5623 11.4727 4.47637 11.418 4.37793 11.418C4.33574 11.418 4.28418 11.4258 4.26387 11.4367C4.24355 11.4477 4.06699 11.6133 3.87324 11.807L3.52168 12.157L3.42168 12.0523C2.78887 11.3758 2.27012 10.3898 2.03887 9.43047C1.94824 9.05859 1.8748 8.57109 1.8748 8.34766V8.26641L2.38887 8.26172C2.88262 8.25703 2.90605 8.25547 2.94824 8.22422C3.02793 8.16484 3.0623 8.09766 3.0623 7.99922C3.0623 7.90078 3.02793 7.83359 2.94824 7.77422C2.90605 7.74297 2.88262 7.74141 2.38887 7.73672L1.8748 7.73203V7.61953C1.8748 7.38516 1.95449 6.85078 2.04043 6.50703C2.26855 5.59766 2.70605 4.75234 3.32324 4.0289C3.39512 3.94453 3.45918 3.87422 3.46543 3.87422C3.47012 3.87422 3.63418 4.03203 3.82793 4.22422C4.02168 4.41797 4.19981 4.58359 4.22324 4.5914C4.29356 4.61797 4.37793 4.61172 4.44355 4.57266C4.55606 4.50859 4.60449 4.40078 4.57324 4.27734C4.55918 4.21953 4.50918 4.16172 4.19981 3.84922L3.84199 3.48828L3.98106 3.36953C4.39824 3.02109 4.80918 2.74922 5.27324 2.51797C6.00137 2.1539 6.69981 1.9664 7.57324 1.89766L7.70137 1.88828L7.70606 2.40078C7.71074 2.98672 7.71231 2.99141 7.84356 3.05859C7.97481 3.12578 8.11543 3.08984 8.19981 2.96797C8.23418 2.9164 8.23418 2.91016 8.23418 2.39609V1.87422H8.34824C8.40918 1.87422 8.55606 1.88515 8.67168 1.89766Z" fill="#8E8E8E"/>
<path d="M10.2809 5.04373C9.34184 5.47498 9.17309 5.55467 8.58559 5.84529C7.4184 6.42342 6.92152 6.73436 6.69652 7.03123C6.26215 7.60154 6.2309 8.33436 6.61684 8.91404C6.81996 9.22029 7.12309 9.44998 7.47621 9.56873C8.12152 9.78592 8.8434 9.55936 9.24965 9.01404C9.5809 8.56873 10.2528 7.25623 11.0778 5.43904C11.2418 5.07811 11.2528 5.02654 11.1809 4.92498C11.1184 4.83436 11.0418 4.79217 10.9403 4.78592C10.8543 4.78279 10.8278 4.79217 10.2809 5.04373ZM10.3512 5.59373C10.3371 5.63748 10.1278 6.11561 9.96684 6.46873C9.79027 6.85779 9.29965 7.84217 9.13246 8.14061C8.8309 8.67967 8.68715 8.85154 8.42934 8.97654C8.04965 9.16248 7.61996 9.12186 7.28559 8.86873C7.11371 8.73904 6.99652 8.57967 6.91527 8.36717C6.86996 8.24686 6.8684 8.23279 6.8684 7.99998C6.8684 7.76717 6.86996 7.75311 6.91527 7.63279C7.05121 7.27811 7.22152 7.12967 7.95746 6.72811C8.4059 6.48123 10.2903 5.56404 10.3481 5.56248C10.3559 5.56248 10.3559 5.57654 10.3512 5.59373Z" fill="#8E8E8E"/>
<path d="M7.83437 7.60781C7.67344 7.68125 7.57812 7.82812 7.57812 7.99844C7.57969 8.16094 7.65156 8.2875 7.79531 8.37187C7.85781 8.40937 7.88281 8.41406 8.00156 8.41406C8.12344 8.41406 8.14219 8.40937 8.21094 8.36719C8.5125 8.18125 8.48594 7.75469 8.16406 7.60781C8.07969 7.56875 7.91875 7.56875 7.83437 7.60781Z" fill="#8E8E8E"/>
</svg>
