<svg width="16" height="16" viewBox="0 0 16 16" fill="none" xmlns="http://www.w3.org/2000/svg">
<g id="Frame">
<path id="Vector" d="M8.00016 13.333C10.9457 13.333 13.3335 10.9452 13.3335 7.99967C13.3335 5.05415 10.9457 2.66634 8.00016 2.66634C5.05464 2.66634 2.66683 5.05415 2.66683 7.99967C2.66683 10.9452 5.05464 13.333 8.00016 13.333ZM8.00016 14.6663C4.31826 14.6663 1.3335 11.6815 1.3335 7.99967C1.3335 4.31777 4.31826 1.33301 8.00016 1.33301C11.682 1.33301 14.6668 4.31777 14.6668 7.99967C14.6668 11.6815 11.682 14.6663 8.00016 14.6663ZM8.00016 10.6663C9.4729 10.6663 10.6668 9.47241 10.6668 7.99967C10.6668 6.52691 9.4729 5.33301 8.00016 5.33301C6.5274 5.33301 5.3335 6.52691 5.3335 7.99967C5.3335 9.47241 6.5274 10.6663 8.00016 10.6663ZM8.00016 11.9997C5.79102 11.9997 4.00016 10.2088 4.00016 7.99967C4.00016 5.79053 5.79102 3.99967 8.00016 3.99967C10.2093 3.99967 12.0002 5.79053 12.0002 7.99967C12.0002 10.2088 10.2093 11.9997 8.00016 11.9997ZM8.00016 9.33301C7.26376 9.33301 6.66683 8.73607 6.66683 7.99967C6.66683 7.26327 7.26376 6.66634 8.00016 6.66634C8.73656 6.66634 9.3335 7.26327 9.3335 7.99967C9.3335 8.73607 8.73656 9.33301 8.00016 9.33301Z" fill="#8E8E8E"/>
</g>
</svg>
