<svg width="24" height="23" viewBox="0 0 24 23" fill="none" xmlns="http://www.w3.org/2000/svg">
<g filter="url(#filter0_d_2441_998)">
<path d="M5.8377 11.9305C6.0127 11.9305 6.15021 11.793 6.15021 11.618V8.34922L8.0377 7.33672V10.018C8.0377 10.193 8.1752 10.3305 8.3502 10.3305C8.5252 10.3305 8.6627 10.193 8.6627 10.018V6.29297L5.53145 7.97422V11.618C5.5252 11.7867 5.6627 11.9305 5.8377 11.9305ZM9.6002 9.56172C9.7752 9.56172 9.9127 9.42422 9.9127 9.24922V3.72422L11.8002 2.71172V11.6992C11.8002 11.8742 11.9377 12.0117 12.1127 12.0117C12.2877 12.0117 12.4252 11.8742 12.4252 11.6992V1.66797L9.2877 3.34922V9.24922C9.2877 9.41797 9.4252 9.56172 9.6002 9.56172ZM13.3627 11.6055C13.5377 11.6055 13.6752 11.468 13.6752 11.293V5.33672L15.5627 4.32422V9.71797C15.5627 9.89297 15.7002 10.0305 15.8752 10.0305C16.0502 10.0305 16.1877 9.89297 16.1877 9.71797V3.28047L13.0565 4.96172V11.293C13.0502 11.468 13.194 11.6055 13.3627 11.6055Z" fill="#8E8E8E"/>
<path d="M19.6249 9.13672C19.5687 9.04297 19.4687 8.98047 19.3562 8.98047H17.1999C17.0874 8.98047 16.9874 9.04297 16.9312 9.13672C16.8749 9.23047 16.8749 9.34922 16.9312 9.44922L17.3187 10.118L15.5999 11.1617C15.3374 11.3242 15.0812 11.4805 14.8187 11.643C14.6312 11.7617 14.4437 11.8742 14.2624 11.993C13.7749 12.3055 13.3437 12.5867 12.9437 12.8617C12.7374 12.9992 12.5374 13.143 12.3312 13.2805L9.53118 10.543L4.48118 13.7555C4.33743 13.8492 4.29368 14.043 4.38743 14.1867C4.44993 14.2805 4.54993 14.3305 4.64993 14.3305C4.70618 14.3305 4.76243 14.3117 4.81868 14.2805L9.44368 11.3367L12.2687 14.093L12.6499 13.818C12.8624 13.668 13.0749 13.518 13.2937 13.3742C13.6874 13.1055 14.1124 12.8305 14.5999 12.518C14.7812 12.3992 14.9687 12.2867 15.1499 12.168C15.4062 12.0055 15.6687 11.8492 15.9249 11.6867L17.5062 10.718L17.6312 10.643L18.0124 11.3055C18.0687 11.3992 18.1687 11.4617 18.2812 11.4617C18.3937 11.4617 18.4937 11.3992 18.5499 11.3055L19.6312 9.43672C19.6812 9.35547 19.6812 9.23672 19.6249 9.13672ZM18.2749 10.5367L17.7374 9.60547H18.8124L18.2749 10.5367Z" fill="#8E8E8E"/>
</g>
<defs>
<filter id="filter0_d_2441_998" x="0" y="0" width="24" height="24" filterUnits="userSpaceOnUse" color-interpolation-filters="sRGB">
<feFlood flood-opacity="0" result="BackgroundImageFix"/>
<feColorMatrix in="SourceAlpha" type="matrix" values="0 0 0 0 0 0 0 0 0 0 0 0 0 0 0 0 0 0 127 0" result="hardAlpha"/>
<feOffset dy="4"/>
<feGaussianBlur stdDeviation="2"/>
<feComposite in2="hardAlpha" operator="out"/>
<feColorMatrix type="matrix" values="0 0 0 0 0 0 0 0 0 0 0 0 0 0 0 0 0 0 0.25 0"/>
<feBlend mode="normal" in2="BackgroundImageFix" result="effect1_dropShadow_2441_998"/>
<feBlend mode="normal" in="SourceGraphic" in2="effect1_dropShadow_2441_998" result="shape"/>
</filter>
</defs>
</svg>
