<svg width="16" height="16" viewBox="0 0 16 16" fill="none" xmlns="http://www.w3.org/2000/svg">
<path d="M2.66699 14.668C2.66699 11.7224 5.05481 9.33464 8.00033 9.33464C10.9459 9.33464 13.3337 11.7224 13.3337 14.668H12.0003C12.0003 12.4588 10.2095 10.668 8.00033 10.668C5.79119 10.668 4.00033 12.4588 4.00033 14.668H2.66699ZM8.00033 8.66797C5.79033 8.66797 4.00033 6.87797 4.00033 4.66797C4.00033 2.45797 5.79033 0.667969 8.00033 0.667969C10.2103 0.667969 12.0003 2.45797 12.0003 4.66797C12.0003 6.87797 10.2103 8.66797 8.00033 8.66797ZM8.00033 7.33464C9.47366 7.33464 10.667 6.1413 10.667 4.66797C10.667 3.19464 9.47366 2.0013 8.00033 2.0013C6.52699 2.0013 5.33366 3.19464 5.33366 4.66797C5.33366 6.1413 6.52699 7.33464 8.00033 7.33464Z" fill="#8E8E8E"/>
</svg>
