<svg xmlns="http://www.w3.org/2000/svg" width="12" height="12" viewBox="0 0 12 12" fill="none">
  <path d="M1 9H4.5V10H1V9ZM1 5.5H5.5V6.5H1V5.5ZM1 2H11V3H1V2ZM10.337 6.51255L10.915 6.317L11.415 7.183L10.957 7.58555C10.9852 7.7193 11 7.8579 11 8C11 8.1421 10.9852 8.2807 10.957 8.41445L11.415 8.817L10.915 9.683L10.337 9.48745C10.1318 9.67205 9.88815 9.81475 9.61955 9.9022L9.5 10.5H8.5L8.38045 9.9022C8.11185 9.81475 7.86825 9.67205 7.663 9.48745L7.08495 9.683L6.58495 8.817L7.043 8.41445C7.0148 8.2807 7 8.1421 7 8C7 7.8579 7.0148 7.7193 7.043 7.58555L6.58495 7.183L7.08495 6.317L7.663 6.51255C7.86825 6.32795 8.11185 6.18525 8.38045 6.0978L8.5 5.5H9.5L9.61955 6.0978C9.88815 6.18525 10.1318 6.32795 10.337 6.51255ZM9 9C9.5523 9 10 8.5523 10 8C10 7.4477 9.5523 7 9 7C8.4477 7 8 7.4477 8 8C8 8.5523 8.4477 9 9 9Z" fill="#C5C5C5"/>
</svg>