<svg width="212" height="212" viewBox="0 0 212 212" fill="none" xmlns="http://www.w3.org/2000/svg">
<g id="Task_empty">
<ellipse id="Ellipse 1183" opacity="0.1" cx="106" cy="205.637" rx="106" ry="6.36" fill="#8E8E8E" fill-opacity="0.6"/>
<path id="Union" fill-rule="evenodd" clip-rule="evenodd" d="M41.861 34.8141C40.4399 32.0763 37.0684 31.0089 34.3306 32.43C31.5927 33.8511 30.5253 37.2226 31.9464 39.9604L37.2398 50.1585C38.6609 52.8963 42.0324 53.9637 44.7702 52.5426C47.5081 51.1215 48.5755 47.75 47.1544 45.0122L41.861 34.8141ZM36.2839 36.1932C36.9434 35.8509 37.7555 36.108 38.0978 36.7675L43.3912 46.9655C43.7335 47.625 43.4763 48.4371 42.8169 48.7794C42.1574 49.1217 41.3453 48.8646 41.003 48.2051L35.7096 38.007C35.3673 37.3476 35.6245 36.5355 36.2839 36.1932ZM55.8876 59.1911C48.8626 59.1911 43.1676 64.886 43.1676 71.9111V161.17C43.1676 168.195 48.8626 173.89 55.8876 173.89H140.688C147.713 173.89 153.408 168.195 153.408 161.17V147.403C144.536 142.271 138.568 132.68 138.568 121.694C138.568 110.708 144.536 101.116 153.408 95.9845V71.9111C153.408 64.886 147.713 59.1911 140.688 59.1911H131.988V62.4069C131.988 68.2611 127.243 73.0069 121.388 73.0069H79.4271C73.5729 73.0069 68.8271 68.2611 68.8271 62.4069V59.1911H55.8876ZM157.648 93.9626V71.9111C157.648 62.5443 150.054 54.9511 140.688 54.9511H112.822C111.382 49.4404 106.37 45.3738 100.408 45.3738C94.4459 45.3738 89.4338 49.4404 87.994 54.9511H55.8876C46.5209 54.9511 38.9276 62.5443 38.9276 71.9111V161.17C38.9276 170.537 46.5209 178.13 55.8876 178.13H140.688C150.054 178.13 157.648 170.537 157.648 161.17V149.425C160.94 150.684 164.513 151.374 168.248 151.374C184.639 151.374 197.928 138.086 197.928 121.694C197.928 105.302 184.639 92.0138 168.248 92.0138C164.513 92.0138 160.94 92.7036 157.648 93.9626ZM15.4304 51.4749C16.81 48.7159 20.165 47.5978 22.924 48.9775L33.2007 54.1165C35.9597 55.4961 37.0778 58.8512 35.6982 61.6101C34.3185 64.3691 30.9635 65.4872 28.2045 64.1076L17.9278 58.9685C15.1689 57.5889 14.0507 54.2339 15.4304 51.4749ZM21.0276 52.7697C20.3631 52.4374 19.555 52.7067 19.2226 53.3713C18.8903 54.0358 19.1596 54.8439 19.8242 55.1763L30.1009 60.3153C30.7655 60.6476 31.5736 60.3783 31.9059 59.7137C32.2382 59.0492 31.9689 58.2411 31.3043 57.9088L21.0276 52.7697ZM88.4184 101.846C88.4184 98.9186 90.7913 96.5457 93.7185 96.5457H129.758C132.686 96.5457 135.058 98.9186 135.058 101.846C135.058 104.773 132.686 107.146 129.758 107.146H93.7185C90.7913 107.146 88.4184 104.773 88.4184 101.846ZM93.7185 121.365C90.7913 121.365 88.4184 123.738 88.4184 126.665C88.4184 129.592 90.7913 131.965 93.7185 131.965H129.758C132.686 131.965 135.058 129.592 135.058 126.665C135.058 123.738 132.686 121.365 129.758 121.365H93.7185ZM92.6585 126.665C92.6585 126.079 93.133 125.605 93.7185 125.605H129.758C130.344 125.605 130.818 126.079 130.818 126.665C130.818 127.25 130.344 127.725 129.758 127.725H93.7185C93.133 127.725 92.6585 127.25 92.6585 126.665ZM88.4184 152.616C88.4184 149.689 90.7913 147.316 93.7185 147.316H129.758C132.686 147.316 135.058 149.689 135.058 152.616C135.058 155.543 132.686 157.916 129.758 157.916H93.7185C90.7913 157.916 88.4184 155.543 88.4184 152.616ZM93.7185 151.556C93.133 151.556 92.6585 152.031 92.6585 152.616C92.6585 153.201 93.133 153.676 93.7185 153.676H129.758C130.344 153.676 130.818 153.201 130.818 152.616C130.818 152.031 130.344 151.556 129.758 151.556H93.7185ZM64.732 99.9452C64.732 96.4326 67.5795 93.5852 71.092 93.5852H74.4548C77.9673 93.5852 80.8148 96.4326 80.8148 99.9452V103.308C80.8148 106.82 77.9673 109.668 74.4548 109.668H71.092C67.5795 109.668 64.732 106.82 64.732 103.308V99.9452ZM71.092 118.404C67.5795 118.404 64.732 121.252 64.732 124.764V128.127C64.732 131.639 67.5795 134.487 71.092 134.487H74.4548C77.9673 134.487 80.8148 131.639 80.8148 128.127V124.764C80.8148 121.252 77.9673 118.404 74.4548 118.404H71.092ZM68.972 124.764C68.972 123.593 69.9212 122.644 71.092 122.644H74.4548C75.6256 122.644 76.5748 123.593 76.5748 124.764V128.127C76.5748 129.298 75.6256 130.247 74.4548 130.247H71.092C69.9212 130.247 68.972 129.298 68.972 128.127V124.764ZM64.732 150.715C64.732 147.203 67.5795 144.355 71.092 144.355H74.4548C77.9673 144.355 80.8148 147.203 80.8148 150.715V154.078C80.8148 157.591 77.9673 160.438 74.4548 160.438H71.092C67.5795 160.438 64.732 157.591 64.732 154.078V150.715ZM71.092 148.595C69.9212 148.595 68.972 149.545 68.972 150.715V154.078C68.972 155.249 69.9212 156.198 71.092 156.198H74.4548C75.6256 156.198 76.5748 155.249 76.5748 154.078V150.715C76.5748 149.545 75.6256 148.595 74.4548 148.595H71.092ZM142.808 121.694C142.808 107.644 154.197 96.2538 168.248 96.2538C182.298 96.2538 193.688 107.644 193.688 121.694C193.688 135.744 182.298 147.134 168.248 147.134C154.197 147.134 142.808 135.744 142.808 121.694ZM162.948 107.914C162.948 104.987 165.321 102.614 168.248 102.614C171.175 102.614 173.548 104.987 173.548 107.914V120.634C173.548 123.561 171.175 125.934 168.248 125.934C165.321 125.934 162.948 123.561 162.948 120.634V107.914ZM168.248 106.854C167.662 106.854 167.188 107.328 167.188 107.914V120.634C167.188 121.219 167.662 121.694 168.248 121.694C168.833 121.694 169.308 121.219 169.308 120.634V107.914C169.308 107.328 168.833 106.854 168.248 106.854ZM168.248 140.774C165.321 140.774 162.948 138.401 162.948 135.474C162.948 132.547 165.321 130.174 168.248 130.174C171.175 130.174 173.548 132.547 173.548 135.474C173.548 138.401 171.175 140.774 168.248 140.774ZM167.188 135.474C167.188 136.059 167.662 136.534 168.248 136.534C168.833 136.534 169.308 136.059 169.308 135.474C169.308 134.888 168.833 134.414 168.248 134.414C167.662 134.414 167.188 134.888 167.188 135.474Z" fill="#8E8E8E"/>
</g>
</svg>
