<svg width="60" height="70" viewBox="0 0 60 70" fill="none" xmlns="http://www.w3.org/2000/svg">
<g clip-path="url(#clip0_2762_1010)">
<path d="M30 9.0413L17.625 23.4788C15.1778 26.3342 13.5112 29.9721 12.8361 33.9325C12.161 37.8929 12.5077 41.9979 13.8323 45.7284C15.1569 49.459 17.3999 52.6475 20.2777 54.8908C23.1555 57.1341 26.5389 58.3315 30 58.3315C33.4611 58.3315 36.8445 57.1341 39.7223 54.8908C42.6001 52.6475 44.8431 49.459 46.1677 45.7284C47.4923 41.9979 47.839 37.8929 47.1639 33.9325C46.4888 29.9721 44.8223 26.3342 42.375 23.4788L30 9.0413ZM30 0.792969L45.91 19.3546C49.0567 23.0258 51.1996 27.7031 52.0677 32.7951C52.9358 37.8871 52.4903 43.165 50.7873 47.9616C49.0843 52.7581 46.2004 56.8578 42.5003 59.7422C38.8002 62.6265 34.4501 64.1661 30 64.1661C25.5499 64.1661 21.1998 62.6265 17.4997 59.7422C13.7996 56.8578 10.9157 52.7581 9.21275 47.9616C7.50977 43.165 7.06418 37.8871 7.93232 32.7951C8.80047 27.7031 10.9434 23.0258 14.09 19.3546L30 0.792969ZM32.5 32.083H38.75L27.5 51.0413V37.9163H21.25L32.5 18.958V32.083Z" fill="#8E8E8E"/>
</g>
<defs>
<clipPath id="clip0_2762_1010">
<rect width="60" height="70" fill="white"/>
</clipPath>
</defs>
</svg>
